<?xml version="1.0" ?><svg viewBox="0 0 512 512" xmlns="http://www.w3.org/2000/svg"><title/><g id="Pancake_with_syrup"><path d="M277.15,45.31a529.8181,529.8181,0,0,0-88.73,7.21,31.7813,31.7813,0,0,0-18.67,10.49.138.138,0,0,0-.04.03,31.5118,31.5118,0,0,0-7.68,20.62V94.6L138.86,78.34a31.3962,31.3962,0,0,0-25.87-4.79C82.18,81.4,56.24,92.26,37.98,104.97c-19.91,13.85-30.79,30-31.47,46.71-.03.56-.04,1.13-.04,1.71v67.57a44.3378,44.3378,0,0,0,4.77,19.74,44.2341,44.2341,0,0,0-4.73,17.9c-.03.56-.04,1.13-.04,1.71v67.57a44.3677,44.3677,0,0,0,4.84,19.85c10.68,21.48,38.21,40.02,79.61,53.61,40.28,13.22,91.27,20.5,143.59,20.5,5.5794,0,11.114-.1073,16.6248-.2655a66.002,66.002,0,0,0,12.8989,9.4714,128.4627,128.4627,0,0,0,27.8047,11.4312c-9.835,7.7387-11.9585,15.6831-11.9585,21.0976,0,23.0029,37.11,40.35,86.32,40.35s86.32-17.3467,86.32-40.35c0-5.9961-2.5708-14.7353-14.5063-22.9853,29.227-9.772,45.2861-24.2974,45.2861-41.0249,0-6.7281-2.8164-16.8311-16.2388-26.7593-.5523-.4077-1.1414-.8063-1.7211-1.2073,3.2577-1.9412,6.3526-3.928,9.23-5.9679,20.03-14.19,30.61-30.72,30.61-47.8V250.25a44.3731,44.3731,0,0,0-5.86-21.68,44.7364,44.7364,0,0,0,5.86-21.74V139.26C505.18,86.58,405.02,45.31,277.15,45.31ZM19.49,152.22c1.06-25.83,38.12-51.15,96.71-66.07a18.4082,18.4082,0,0,1,15.19,2.82l30.64,21.51,68.08,47.78,16.9,11.86L327,226.27c-8.71,1.6-17.69,2.98-26.87,4.11-11.57,1.44-23.46,2.49-35.51,3.15-9.95.55-20.02.82-30.11.82q-13.425,0-26.59-.63-12.75-.6-25.19-1.79-10.44-.99-20.61-2.41-5.01-.69-9.93-1.48c-30.14-4.84-56.53-12.16-77.66-21.14q-8.22-3.48-15.35-7.29C34,186.18,19.48,170.05,19.47,153.39,19.47,153,19.48,152.61,19.49,152.22Zm60.76,163.9c-38.62-15.25-60.78-35.58-60.78-55.8,0-.39.01-.78.02-1.18a28.4488,28.4488,0,0,1,.71-5.24c7.41,8.46,18.52,17.24,34.89,25.74,43.22,22.42,108.61,35.28,179.42,35.28q13.815,0,27.37-.65,17.415-.825,34.26-2.74l30.87,21.67c-10.26,1.88-20.9,3.45-31.8,4.68a538.615,538.615,0,0,1-60.7,3.39C176.14,341.27,121.35,332.34,80.25,316.12Zm379.085,67.1407c5.0019,3.7,10.9648,9.5318,10.9648,16.3038,0,10.5063-14.647,21.7294-38.2153,29.2876a12.0078,12.0078,0,0,0-2.812,21.5346l.0068.0044c3.8247,2.4448,10.2407,7.4087,10.2407,13.1836,0,6.0864-7.2573,12.7979-19.414,17.9531-14.2891,6.06-33.4336,9.3965-53.9058,9.3965-41.9644,0-73.32-14.4394-73.32-27.35,0-4.8267,4.43-9.0527,8.1557-11.7554a12.0194,12.0194,0,0,0-3.7807-21.31,121.4382,121.4382,0,0,1-25.2584-9.9174A504.0535,504.0535,0,0,0,323.23,414.64a31.5536,31.5536,0,0,0,26.38-31.15v-7.06l23.14,16.39a31.4478,31.4478,0,0,0,17.01,5.78q.645.03,1.29.03a31.066,31.066,0,0,0,7.67-.97c20.1751-5.1355,38.2237-11.5682,53.42-18.9626A64.9478,64.9478,0,0,1,459.335,383.2607ZM492.18,250.26c-.01,26.27-37.05,52.03-96.67,67.23a18.6287,18.6287,0,0,1-15.31-2.83l-33.98-23.85a31.369,31.369,0,0,0,3.39-14.24V265.42l23.13,16.39a31.5755,31.5755,0,0,0,17.06,5.8h.24c.32.01.64.02.96.02a31.2238,31.2238,0,0,0,7.72-.97c31.31-7.97,57.54-19.05,75.85-32.03a97.5414,97.5414,0,0,0,15.98-13.93,29.4914,29.4914,0,0,1,1.63,9.55Zm-1-103.5c-3.87,14.71-19.08,28.88-42.87,40.78q-7.515,3.78-16.17,7.22a297.6878,297.6878,0,0,1-36.63,11.73,18.5875,18.5875,0,0,1-15.31-2.82l-44.53-31.26h-.01L314.43,157.5,185.48,66.99a18.4826,18.4826,0,0,1,5.12-1.65,516.5475,516.5475,0,0,1,86.55-7.03c58.37,0,113.16,8.93,154.26,25.16,38.62,15.25,60.77,35.58,60.77,55.8A28.8389,28.8389,0,0,1,491.18,146.76Z"/><path d="M467.8688,114.1626a2.1784,2.1784,0,0,0-2.3964-.6112l-35.5345,12.9274a4.571,4.571,0,0,1-4.1678-.54L401.14,108.8551a4.5709,4.5709,0,0,1,1.0423-8.0514l24.7028-8.987a2.1921,2.1921,0,0,0,.0948-4.0857q-4.2933-1.7535-8.8849-3.388a2.2192,2.2192,0,0,0-1.4979.0049l-31.092,11.3113a4.5715,4.5715,0,0,1-4.168-.54L360.1844,80.4482a4.571,4.571,0,0,1,1.0423-8.0515.9174.9174,0,0,0-.17-1.769c-11.7338-1.8013-24.122-3.4321-36.8675-4.2085a.9219.9219,0,0,0-.7314,1.5422,9.3333,9.3333,0,0,1,.9594,1.15,4.5794,4.5794,0,0,1-2.5156,6.38l-23.5135,8.5544a4.5709,4.5709,0,0,1-4.1679-.54l-23.1685-16.07a2.21,2.21,0,0,0-1.3966-.3888q-4.9407.3126-9.7867.7329a2.1936,2.1936,0,0,0-1.0566,3.9882l17.9712,12.465a4.5711,4.5711,0,0,1-1.0425,8.0516l-23.1146,8.409a2.1912,2.1912,0,0,0-.51,3.8527l6.1443,4.3128a2.1911,2.1911,0,0,0,2.008.2658l32.1494-11.6962a4.5708,4.5708,0,0,1,4.168.54l21.1523,14.6715a4.5709,4.5709,0,0,1-1.0424,8.0514l-23.4342,8.5254a2.1913,2.1913,0,0,0-.51,3.8528l6.1443,4.3127a2.191,2.191,0,0,0,2.008.2656l32.4689-11.8122a4.5708,4.5708,0,0,1,4.1677.5395l24.6308,17.084a4.571,4.571,0,0,1-1.0425,8.0515l-23.7807,8.6514a2.1913,2.1913,0,0,0-.51,3.8528l6.1443,4.3127a2.191,2.191,0,0,0,2.008.2658l32.8154-11.9384a4.5712,4.5712,0,0,1,4.168.54l41.8462,29.025a2.212,2.212,0,0,0,2.0775.2345q3.4826-1.3977,6.7681-2.87a2.1939,2.1939,0,0,0,.3532-3.8061L399.4119,156.468a4.5711,4.5711,0,0,1,1.0425-8.0516l23.5133-8.5541a4.571,4.571,0,0,1,4.1679.54L461.5522,163.58a2.1794,2.1794,0,0,0,2.76-.2127,57.6624,57.6624,0,0,0,4.3862-4.7715,2.1963,2.1963,0,0,0-.4511-3.1938l-22.6747-15.7275a4.5709,4.5709,0,0,1,1.0425-8.0514l24.1937-8.8017a2.188,2.188,0,0,0,1.1174-3.2158A47.4265,47.4265,0,0,0,467.8688,114.1626Zm-132.6931-2.2495L314.0233,97.2417a4.571,4.571,0,0,1,1.0424-8.0515l23.5136-8.5543a4.5707,4.5707,0,0,1,4.1678.54L363.8994,95.847a4.5709,4.5709,0,0,1-1.0424,8.0514l-23.5135,8.5542A4.57,4.57,0,0,1,335.1757,111.9131ZM407.29,134.718l-23.5134,8.5541a4.5715,4.5715,0,0,1-4.1679-.54l-24.6306-17.0841a4.5707,4.5707,0,0,1,1.0424-8.0512l23.5134-8.5545a4.571,4.571,0,0,1,4.1679.54l24.6306,17.084A4.571,4.571,0,0,1,407.29,134.718Z"/><path d="M41.2536,163.6332a3.6123,3.6123,0,0,0,4.7076,2.3836l28.9651-10.5376a4.4165,4.4165,0,0,1,4.1434.605L98.5856,170.582a4.4162,4.4162,0,0,1-1.1237,7.6952l-26.5465,9.6576a3.61,3.61,0,0,0-.5751,6.5188q1.7259.9947,3.538,1.9639a3.6078,3.6078,0,0,0,2.93.2016L112.72,183.5546a4.4162,4.4162,0,0,1,4.1434.6051l22.726,16.8823a4.4163,4.4163,0,0,1-1.1237,7.6953l-3.5013,1.2737a3.6108,3.6108,0,0,0,.5348,6.9355q2.8365.5633,5.7317,1.0866a3.647,3.647,0,0,0,1.8905-.1615l10.6019-3.857a4.4166,4.4166,0,0,1,4.1435.605l8.8571,6.58a3.6217,3.6217,0,0,0,1.7819.6972q2.8581.3009,5.7535.5647a3.6134,3.6134,0,0,0,2.4816-6.4964l-2.7449-2.0391a4.4162,4.4162,0,0,1,1.1237-7.6952l24.21-8.8078a4.4163,4.4163,0,0,1,4.1435.6049l33.2374,24.6911a3.6255,3.6255,0,0,0,2.3742.7088q2.3087-.1369,4.5969-.2978a3.61,3.61,0,0,0,1.8954-6.5l-25.9747-19.2957a4.4164,4.4164,0,0,1,1.1238-7.6954l20.7466-7.5476a3.6082,3.6082,0,0,0,1.0658-6.1715l-2.2026-1.8213a3.6079,3.6079,0,0,0-3.4824-.6282l-31.3851,10.8914a4.4169,4.4169,0,0,1-4.1435-.605l-22.7259-16.8825a4.4161,4.4161,0,0,1,1.1238-7.6951l19.929-6.8321a3.6083,3.6083,0,0,0,.9028-6.3667l-2.8527-2.0022a3.6083,3.6083,0,0,0-3.2532-.4563l-29.9836,10.38a4.4167,4.4167,0,0,1-4.1435-.6051l-19.5161-14.4979a4.4163,4.4163,0,0,1,1.1237-7.6953l18.4646-6.3076a3.6083,3.6083,0,0,0,.9066-6.368l-2.8463-1.9978a3.6085,3.6085,0,0,0-3.2507-.4571l-28.5319,9.8532a4.4162,4.4162,0,0,1-4.1434-.6051l-23.2815-18.363a3.6157,3.6157,0,0,0-3.4974-.5525q-1.7743.6636-3.5008,1.3467a3.6119,3.6119,0,0,0-.9451,6.1815l15.0955,12.0812a4.4163,4.4163,0,0,1-1.1237,7.6953l-24.21,8.8076a4.4159,4.4159,0,0,1-4.1434-.605L58.9854,128.4885a3.61,3.61,0,0,0-4.5732.2146Q53.2085,129.7969,52.1,130.91a3.61,3.61,0,0,0,.4113,5.4446l8.2816,6.1521a4.4163,4.4163,0,0,1-1.1238,7.6953l-16.83,6.1228a3.6434,3.6434,0,0,0-2.32,4.0432A28.8413,28.8413,0,0,0,41.2536,163.6332ZM162.47,167.5679,185.1959,184.45a4.4163,4.4163,0,0,1-1.1238,7.6953l-24.21,8.8079a4.4167,4.4167,0,0,1-4.1434-.605l-22.726-16.8826a4.4162,4.4162,0,0,1,1.1237-7.6952l24.21-8.8077A4.4157,4.4157,0,0,1,162.47,167.5679ZM96.3226,147.6951l24.21-8.8076a4.4162,4.4162,0,0,1,4.1434.6049L144.1925,153.99a4.4164,4.4164,0,0,1-1.1238,7.6955l-24.21,8.8077a4.4165,4.4165,0,0,1-4.1433-.6051L95.1989,155.39A4.4163,4.4163,0,0,1,96.3226,147.6951Z"/></g></svg>